<?xml version="1.0" encoding="UTF-8" standalone="no"?>
<svg
   version="1.1"
   id="Layer_1"
   x="0px"
   y="0px"
   width="100%"
   viewBox="0 0 1024 1024"
   enable-background="new 0 0 1024 1024"
   xml:space="preserve"
   sodipodi:docname="file.svg"
   inkscape:version="1.4.2 (f4327f4, 2025-05-13)"
   xmlns:inkscape="http://www.inkscape.org/namespaces/inkscape"
   xmlns:sodipodi="http://sodipodi.sourceforge.net/DTD/sodipodi-0.dtd"
   xmlns="http://www.w3.org/2000/svg"
   xmlns:svg="http://www.w3.org/2000/svg"><sodipodi:namedview
   id="namedview7"
   pagecolor="#ffffff"
   bordercolor="#999999"
   borderopacity="1"
   inkscape:showpageshadow="2"
   inkscape:pageopacity="0"
   inkscape:pagecheckerboard="0"
   inkscape:deskcolor="#d1d1d1"
   inkscape:zoom="0.26689138"
   inkscape:cx="-249.16504"
   inkscape:cy="1470.6357"
   inkscape:window-width="1920"
   inkscape:window-height="991"
   inkscape:window-x="-9"
   inkscape:window-y="-9"
   inkscape:window-maximized="1"
   inkscape:current-layer="Layer_1" /><defs
   id="defs7" />
<path
   fill="#000000"
   opacity="1"
   stroke="none"
   d="m 737.42581,942.93007 c -22.66235,21.63177 -44.90537,42.88046 -67.18466,64.09123 -15.75843,15.0026 -34.2694,21.1179 -55.20395,14.0943 -22.12774,-7.4237 -33.63462,-24.71822 -37.78404,-46.92449 -3.7643,-20.14487 3.40182,-37.80934 14.22137,-54.33998 1.71949,-2.62716 4.37585,-4.68706 5.26177,-9.29553 -3.88437,0 -7.48684,2e-4 -11.08931,0 -79.21399,-0.005 -158.42807,-0.069 -237.64202,0.0122 -37.73258,0.0385 -72.6111,-9.2874 -103.09389,-32.0112 -40.15563,-29.93452 -62.69932,-70.3373 -67.45457,-120.02875 -4.31394,-45.07993 -1.26942,-90.36436 -1.67944,-135.55399 -0.46124,-50.84269 -0.0378,-101.69314 -0.1988,-152.53957 -0.0188,-5.9609 1.41731,-10.59738 5.59261,-15.0989 18.54595,-19.99471 36.63308,-40.41473 55.16536,-60.42238 3.99378,-4.31165 5.28128,-8.77661 5.26555,-14.43815 -0.13518,-48.7056 0.0125,-97.41202 -0.15307,-146.11742 -0.0214,-6.2959 1.20244,-10.42776 7.05487,-14.4682 18.61526,-12.85148 16.89121,-41.84064 -2.52154,-53.49376 -15.23279,-9.14404 -39.17428,2.41057 -41.80581,20.34371 -2.16821,14.77603 2.1032,27.09833 15.21924,35.22643 3.29541,2.04217 4.03463,4.3445 4.02886,7.84173 -0.0806,48.97348 -0.0609,97.94722 -0.0555,146.92085 3.4e-4,3.23676 -0.0834,6.30266 -2.5789,8.94016 -13.60397,14.37854 -27.09744,28.86168 -40.67948,43.26111 -0.63939,0.67787 -1.7606,0.90126 -2.67206,1.34347 -2.66602,-2.72791 -1.71932,-5.82474 -1.7205,-8.59462 -0.0506,-115.87755 -0.12231,-231.75517 0.022,-347.632528 0.0448,-35.94243 23.94965,-65.8143496 57.54234,-72.3646494 15.22858,-2.9694731 30.58175,-1.4871752 43.33943,7.129114 32.12254,21.6949594 64.65761,43.2785414 91.55105,71.4419534 27.3208,28.61088 40.81962,64.2893 41.19029,103.4869 0.9008,95.26256 0.22568,190.5396 0.39439,285.81046 0.011,6.3343 -2.86276,10.42486 -6.75935,14.69246 -18.03413,19.75084 -35.86897,39.68349 -53.86071,59.47323 -3.84174,4.2256 -5.32601,9.01283 -5.30989,14.64396 0.0911,31.84602 -0.24814,63.69569 0.12247,95.53761 0.40229,34.56622 19.55446,62.56591 49.58299,73.72237 11.30769,4.20108 23.26788,2.5699 34.81166,4.12746 21.21619,2.86289 36.46404,-4.47858 49.66874,-21.02002 12.30634,-15.41614 27.10276,-28.82482 40.42763,-43.45906 4.16551,-4.57494 8.51479,-6.56917 14.64728,-6.47028 17.6573,0.28487 35.32186,0.13921 52.98347,0.10005 3.40319,-0.007 6.80589,-0.29905 10.91757,-0.49303 -1.80152,-6.66651 -6.26019,-10.70801 -9.23847,-15.56015 -11.93013,-19.43677 -14.72942,-39.76701 -6.61121,-61.33389 13.67618,-36.33196 57.30227,-47.60045 86.02917,-21.58039 20.01786,18.13163 39.02716,37.37746 58.46922,56.14397 36.96225,35.67826 73.75032,71.53884 110.91525,107.00471 32.79597,31.29662 33.27892,90.25085 -0.19584,123.11424 -32.44435,31.85182 -65.65416,62.92388 -98.93159,94.73777 M 523.48718,821.32456 c -1.9606,2.19146 -4.21294,4.18785 -5.83087,6.60837 -6.69532,10.01657 -15.62376,13.44153 -27.86217,13.23607 -42.2663,-0.70968 -84.55186,-0.20093 -126.82941,-0.34572 -21.47506,-0.0735 -42.85975,-1.09333 -62.34927,-11.78075 -40.75487,-22.34878 -58.38255,-58.50293 -58.85175,-103.24687 -0.79117,-75.45008 -0.11692,-150.91486 -0.35268,-226.37254 -0.0245,-7.83389 2.3283,-13.81601 7.58663,-19.36714 15.62843,-16.49868 30.88342,-33.35231 46.58691,-49.77797 4.75893,-4.97761 7.1204,-10.21296 7.05228,-17.13193 -0.22638,-23.00992 0.0794,-46.02535 -0.18884,-69.03436 -0.0737,-6.32637 0.70066,-11.36636 6.95375,-14.70107 4.03357,-2.15108 6.60466,-6.17337 8.66055,-10.31892 6.02275,-12.14461 3.99961,-26.56223 -5.12488,-36.54194 -7.82814,-8.56203 -20.24672,-11.63646 -30.77579,-7.1467 -11.51154,4.90884 -17.13416,14.72045 -18.22704,26.40219 -1.05183,11.2432 3.60114,21.2043 13.03536,27.75445 5.53211,3.84105 7.40999,8.13025 7.2962,14.67216 -0.36764,21.133 -0.33254,42.27767 -0.0898,63.41365 0.0693,6.02907 -1.55977,10.63797 -5.80925,15.0499 -15.76806,16.37029 -31.11468,33.14569 -46.79915,49.59778 -5.65136,5.92787 -8.27467,12.35687 -8.24678,20.81569 0.24631,74.65439 0.13564,149.31022 0.0482,223.96553 -0.015,12.86761 0.63684,25.69944 3.33707,38.25632 12.21715,56.81149 60.46287,104.54084 124.38049,103.44409 78.11125,-1.34024 156.26313,-0.26231 234.39713,-0.42327 6.47134,-0.0133 10.49549,1.17725 13.82105,7.75592 7.65103,15.13533 25.02143,19.63164 39.06931,11.30367 10.97197,-6.50427 16.34146,-18.74091 14.23724,-32.44376 -1.86162,-12.12245 -11.51775,-22.81908 -22.86554,-25.3292 -11.46512,-2.5361 -23.02327,2.68487 -30.39758,14.69942 -2.58971,4.21921 -5.38586,5.60808 -10.11381,6.01221 -17.40871,1.48825 -34.75805,-0.58028 -52.13373,-0.33308 -1.24526,0.0177 -2.75301,-0.0549 -3.31359,-2.87945 9.90511,-10.63245 20.69987,-21.34634 30.41717,-32.96172 6.35274,-7.5934 13.62894,-9.86062 23.10011,-9.77848 33.97977,0.29456 67.96559,0.13528 101.94614,-0.17418 5.869,-0.0533 8.91325,1.76398 11.62754,7.17524 9.59037,19.11958 34.34341,20.77622 46.88804,3.53796 11.00717,-15.12562 7.27865,-35.38763 -8.40913,-45.69767 -13.49856,-8.87119 -29.91412,-3.86056 -38.88824,12.57471 -3.09336,5.66522 -7.56909,5.07358 -12.26948,5.06808 -36.90245,-0.0435 -73.80775,0.0713 -110.7051,-0.40707 -8.57164,-0.11117 -14.7604,2.74645 -20.32945,8.88245 -10.78387,11.88182 -21.91092,23.45202 -33.67776,35.96793 M 285.88501,719.45919 c 11.41974,48.90855 45.43778,76.05821 95.321,76.06301 31.31372,0.002 62.63339,-0.34797 93.93773,0.1928 9.49327,0.16409 16.21614,-3.02551 22.41199,-9.76347 14.30471,-15.55661 29.23477,-30.54068 43.44172,-46.18327 5.47046,-6.02319 11.19223,-8.62163 19.47089,-8.53576 38.53577,0.39982 77.07802,0.17907 115.61801,0.13457 8.2662,-0.01 12.42953,-3.14255 12.12185,-9.29503 -0.36032,-7.20571 -5.01132,-9.20387 -11.51776,-9.1932 -42.55423,0.0702 -85.10897,0.073 -127.66311,-0.047 -5.2751,-0.0148 -9.12937,2.00365 -12.63431,5.73159 -16.1221,17.14769 -32.46465,34.08895 -48.48804,51.32741 -3.97157,4.27262 -8.2739,5.79636 -14.037,6.08269 -33.98529,1.6888 -67.94907,-0.1243 -101.91952,-0.21427 -38.846,-0.10296 -69.14537,-30.30937 -69.31205,-69.41347 -0.25442,-59.68233 -0.034,-119.36671 -0.15703,-179.04983 -0.011,-5.15531 1.36313,-9.15123 5.00818,-12.90681 13.60101,-14.01312 26.45405,-28.78945 40.55394,-42.26875 10.35537,-9.89952 16.4436,-20.42116 14.2547,-35.14861 -0.85588,-5.75858 -0.0981,-11.75482 -0.0999,-17.64284 -0.0182,-61.82443 -0.0504,-123.64886 -0.0444,-185.47328 3.9e-4,-4.43765 -0.53109,-8.60615 4.48691,-11.81958 13.30459,-8.51983 18.11319,-21.60372 14.47231,-36.63323 -2.94558,-12.15926 -14.88312,-22.22247 -27.07434,-22.8233 -10.96899,-0.54069 -22.71606,7.77434 -27.13837,19.20966 -5.92894,15.33107 -1.1572,30.59534 12.77856,40.0299 3.06995,2.0784 5.28464,3.97819 5.22442,8.16466 -0.43836,30.45325 -1.01604,60.91049 -0.90764,91.36418 0.13916,39.0646 -0.99481,78.13782 0.63145,117.19638 0.24809,5.95864 -0.69095,11.39475 -5.30283,16.1791 -16.33579,16.9467 -32.14348,34.4031 -48.51137,51.31796 -4.84212,5.00396 -6.87925,10.18339 -6.85391,17.10818 0.21922,59.95042 0.15564,119.90171 0.22289,179.8528 0.006,5.06387 -0.29229,10.19165 1.70497,16.45665 m 415.89587,162.93068 c -21.42641,20.55852 -42.85693,41.11273 -64.27648,61.67843 -5.41331,5.19756 -6.4535,11.51805 -2.33731,15.46358 5.1017,4.89018 9.77268,2.70636 14.03494,-1.40424 47.36267,-45.67876 94.88391,-91.19519 141.97084,-137.15665 20.15155,-19.66986 20.12106,-48.97216 0.37719,-68.85346 -19.22309,-19.3568 -38.96755,-38.19701 -58.53695,-57.20847 -28.39452,-27.58516 -56.82854,-55.12963 -85.27092,-82.6656 -3.68145,-3.56415 -7.92429,-4.89134 -12.15919,-1.19664 -4.26775,3.72324 -4.28137,8.57007 -1.51668,13.08747 1.63666,2.6741 4.21607,4.80871 6.52114,7.03076 44.48446,42.8823 89.04334,85.68756 133.46861,128.63115 19.20317,18.56262 19.40677,34.41193 0.38776,52.95211 -23.75235,23.15423 -47.88158,45.92175 -72.66295,69.64156 z"
   id="path1"
   style="stroke-width:1.60598;fill-opacity:1.0;fill:#05df72" />
<path
   fill="#000000"
   opacity="1"
   stroke="none"
   d="m 459.05162,661.00488 c 12.7389,0.0373 24.71824,-0.22497 36.38599,1.82995 0.62188,1.91346 -0.10665,3.03474 -1.04585,4.01062 -13.16773,13.68168 -26.35362,27.3459 -39.53034,41.01895 -2.47155,2.56461 -5.24878,4.85251 -8.93264,4.84753 -13.33499,-0.0181 -26.73297,1.72035 -39.98831,-0.94317 -25.28082,-5.07984 -43.12761,-25.19874 -43.70515,-51.29251 -0.72795,-32.89262 -0.19819,-65.81285 -0.24946,-98.72115 -0.005,-3.35006 0.7797,-6.28137 3.09864,-8.82238 13.51891,-14.81362 26.9838,-29.67643 40.51442,-44.47927 0.6345,-0.69407 1.721,-0.97491 2.63921,-1.471 2.27831,2.94151 1.36215,5.97703 1.36901,8.7767 0.0785,32.10598 -0.0335,64.21256 0.092,96.31825 0.0836,21.36515 15.28342,42.1163 34.2579,47.55058 4.7464,1.35944 9.53047,1.08587 15.09448,1.3769 z"
   id="path2"
   style="stroke-width:1.60598;fill-opacity:1.0;fill:#05df72" />
<path
   fill="#000000"
   opacity="1"
   stroke="none"
   d="m 243.28177,201.16376 c -5.9288,6.63587 -12.52801,7.932 -17.68236,3.97446 -5.01602,-3.85139 -7.01177,-13.62575 -3.42608,-18.86179 3.73702,-5.45707 8.98496,-7.30663 15.27839,-4.52925 6.98369,3.08208 9.03392,9.58464 5.83005,19.41658 z"
   id="path3"
   style="stroke-width:1.60598;fill-opacity:1.0;fill:#05df72" />
<path
   fill="#000000"
   opacity="1"
   stroke="none"
   d="m 298.33706,292.56456 c 3.97221,2.38665 6.03858,5.3737 6.64833,9.28738 1.16448,7.47488 -4.39085,15.3865 -11.13916,15.95145 -7.00247,0.58631 -13.52445,-5.96487 -13.65511,-13.71633 -0.13762,-8.15886 5.27736,-13.2344 13.71207,-12.74732 1.29877,0.0749 2.57251,0.58459 4.43387,1.22482 z"
   id="path4"
   style="stroke-width:1.60598;fill-opacity:1.0;fill:#05df72" />
<path
   fill="#000000"
   opacity="1"
   stroke="none"
   d="m 716.82789,776.55475 c 5.22598,-4.89644 10.54665,-5.17884 15.59581,-1.33857 5.29039,4.02376 6.36637,10.04028 4.31989,15.90065 -1.97268,5.64897 -6.43244,9.40493 -12.9578,8.34375 -6.83598,-1.11165 -9.63662,-6.00025 -10.05979,-12.54276 -0.2332,-3.60413 0.8918,-6.82206 3.10189,-10.36307 z"
   id="path5"
   style="stroke-width:1.60598;fill-opacity:1.0;fill:#05df72" />
<path
   fill="#000000"
   opacity="1"
   stroke="none"
   d="m 636.06231,850.63685 c -1.28092,8.9106 -6.13757,13.70314 -12.67136,13.18687 -6.57809,-0.52002 -11.02766,-5.83226 -11.16744,-13.33272 -0.13095,-7.02694 4.73746,-12.6308 11.38308,-13.10297 6.8009,-0.48314 11.14911,3.90439 12.45572,13.24882 z"
   id="path6"
   style="stroke-width:1.60598;fill-opacity:1.0;fill:#05df72" />
<path
   fill="#000000"
   opacity="1"
   stroke="none"
   d="m 365.70374,196.39436 c -2.21473,7.70244 -6.68546,11.60225 -14.29768,10.75844 -6.2503,-0.69282 -9.24059,-4.92987 -10.12772,-10.72208 -1.30706,-8.53284 3.43284,-15.22751 10.86406,-15.70998 8.05977,-0.52317 13.10663,5.01927 13.56134,15.67362 z"
   id="path7"
   style="stroke-width:1.60598;fill-opacity:1.0;fill:#05df72" />
</svg>
