<?xml version="1.0" encoding="UTF-8" standalone="no"?>
<svg
   width="811.453"
   height="311.372"
   viewBox="0 0 811.453 311.372"
   role="img"
   artist="Katerina Limpitsouni"
   source="https://undraw.co/"
   version="1.1"
   id="svg6"
   sodipodi:docname="clouds.svg"
   inkscape:version="1.4.2 (f4327f4, 2025-05-13)"
   xmlns:inkscape="http://www.inkscape.org/namespaces/inkscape"
   xmlns:sodipodi="http://sodipodi.sourceforge.net/DTD/sodipodi-0.dtd"
   xmlns="http://www.w3.org/2000/svg"
   xmlns:svg="http://www.w3.org/2000/svg">
  <sodipodi:namedview
     id="namedview6"
     pagecolor="#ffffff"
     bordercolor="#999999"
     borderopacity="1"
     inkscape:showpageshadow="2"
     inkscape:pageopacity="0"
     inkscape:pagecheckerboard="0"
     inkscape:deskcolor="#d1d1d1"
     inkscape:zoom="1.0924847"
     inkscape:cx="358.35742"
     inkscape:cy="212.81762"
     inkscape:window-width="1920"
     inkscape:window-height="991"
     inkscape:window-x="-9"
     inkscape:window-y="-9"
     inkscape:window-maximized="1"
     inkscape:current-layer="svg6" />
  <defs
     id="defs6" />
  <g
     transform="translate(-411.975 -357.501)"
     id="g6">
    <path
       d="M831.938,243.782a48.214,48.214,0,0,1,48.147-45.694c1.465,0,2.912.076,4.344.2a64.058,64.058,0,0,1,110.733-.052c1.208-.091,2.424-.152,3.656-.152a48.214,48.214,0,0,1,48.147,45.693"
       transform="translate(-419.962 207.558)"
       fill="#f2f2f2"
       id="path1"
       style="fill-opacity:1.0;fill:#f2f2f2" />
    <path
       d="M844.569,239.117a48.214,48.214,0,0,1,48.147-45.694c1.465,0,2.912.076,4.344.2a64.058,64.058,0,0,1,110.733-.052c1.208-.091,2.424-.152,3.656-.152a48.214,48.214,0,0,1,48.147,45.693"
       transform="translate(-422.552 208.515)"
       fill="none"
       stroke="#3f3d56"
       stroke-miterlimit="10"
       stroke-width="1"
       id="path2"
       style="stroke-opacity:1.0;stroke:#3f3d56" />
    <path
       d="M155.988,539.473A159.577,159.577,0,0,1,315.344,388.236c4.85,0,9.639.253,14.379.677a212.017,212.017,0,0,1,366.5-.173c4-.3,8.024-.5,12.1-.5A159.577,159.577,0,0,1,867.679,539.473"
       transform="translate(322.013 86.835)"
       fill="#f2f2f2"
       id="path3"
       style="fill-opacity:1.0;fill:#f2f2f2" />
    <path
       d="M197.794,524.033A159.577,159.577,0,0,1,357.15,372.8c4.85,0,9.639.253,14.379.677a212.017,212.017,0,0,1,366.5-.173c4-.3,8.024-.5,12.1-.5A159.577,159.577,0,0,1,909.485,524.033"
       transform="translate(313.444 90)"
       fill="none"
       stroke="#3f3d56"
       stroke-miterlimit="10"
       stroke-width="1"
       id="path4"
       style="stroke-opacity:1.0;stroke:#3f3d56" />
    <path
       d="M84.962,212.741a65.236,65.236,0,0,1,65.146-61.827c1.983,0,3.94.1,5.878.277a86.674,86.674,0,0,1,149.827-.071c1.635-.123,3.28-.206,4.946-.206a65.236,65.236,0,0,1,65.146,61.825"
       transform="translate(493.985 456.133)"
       fill="#6c63ff"
       id="path5"
       style="fill-opacity:1.0;fill:#05df72" />
    <path
       d="M102.053,206.428A65.236,65.236,0,0,1,167.2,144.6c1.983,0,3.94.1,5.878.277a86.674,86.674,0,0,1,149.828-.071c1.635-.123,3.28-.206,4.946-.206A65.236,65.236,0,0,1,393,206.427"
       transform="translate(490.482 457.427)"
       fill="none"
       stroke="#3f3d56"
       stroke-miterlimit="10"
       stroke-width="1"
       id="path6"
       style="stroke-opacity:1.0;stroke:#3f3d56" />
  </g>
</svg>
