<?xml version="1.0" encoding="UTF-8" standalone="no"?>
<svg
   width="964.77899"
   height="623.836"
   viewBox="0 0 964.779 623.836"
   version="1.1"
   id="svg40"
   sodipodi:docname="hero.svg"
   inkscape:version="1.4.2 (f4327f4, 2025-05-13)"
   xmlns:inkscape="http://www.inkscape.org/namespaces/inkscape"
   xmlns:sodipodi="http://sodipodi.sourceforge.net/DTD/sodipodi-0.dtd"
   xmlns="http://www.w3.org/2000/svg"
   xmlns:svg="http://www.w3.org/2000/svg">
  <sodipodi:namedview
     id="namedview1"
     pagecolor="#ffffff"
     bordercolor="#999999"
     borderopacity="1"
     inkscape:showpageshadow="2"
     inkscape:pageopacity="0"
     inkscape:pagecheckerboard="0"
     inkscape:deskcolor="#d1d1d1"
     inkscape:zoom="0.87618146"
     inkscape:cx="573.51133"
     inkscape:cy="348.67206"
     inkscape:window-width="1920"
     inkscape:window-height="991"
     inkscape:window-x="-9"
     inkscape:window-y="-9"
     inkscape:window-maximized="1"
     inkscape:current-layer="g40" />
  <defs
     id="defs40">
    <linearGradient
       id="swatch1"
       inkscape:swatch="solid">
      <stop
         style="stop-color:#ffffff;stop-opacity:1;"
         offset="0"
         id="stop1" />
    </linearGradient>
    <rect
       x="403.11267"
       y="224.355"
       width="175.93304"
       height="89.580589"
       id="rect1" />
  </defs>
  <g
     transform="translate(-469.531,-212)"
     id="g40">
    <path
       d="m 621.609,376 16.554,1.133 2.737,18.422 L 619,397 Z"
       fill="#ed9da0"
       id="path1" />
    <path
       d="m 1032.034,231.138 c 71.22,-38.107 161.612,-18.129 209.536,49.439 l -1.631,1.157 c -47.332,-66.735 -136.619,-86.461 -206.963,-48.833 a 161,161 0 0 0 -17.272,10.692 c -72.337,51.306 -89.448,151.9 -38.141,224.235 l -1.631,1.157 c -51.944,-73.237 -34.622,-175.08 38.615,-227.024 a 164,164 0 0 1 17.488,-10.823 z"
       fill="#090814"
       id="path2" />
    <path
       d="m 1409.33,394.018 -234.25,-18.22 a 13.774,13.774 0 0 1 -12.65,-14.78 l 10.155,-113.817 a 13.774,13.774 0 0 1 14.784,-12.65 l 234.25,18.224 a 13.774,13.774 0 0 1 12.65,14.784 l -10.155,113.813 a 13.774,13.774 0 0 1 -14.784,12.646"
       fill="#e6e6e6"
       id="path3" />
    <path
       d="m 1353.997,368.309 q -2.667,0 -5.354,-0.208 l -151.388,-11.777 a 23.12,23.12 0 0 1 -21.257,-24.843 l 3.452,-44.375 a 23.146,23.146 0 0 1 24.845,-21.258 l 195.762,15.23 a 23.147,23.147 0 0 1 21.257,24.84 67.64,67.64 0 0 1 -67.317,62.389 z"
       fill="#ffffff"
       id="path4" />
    <path
       d="m 1283.264,352.762 18.704,-1.762 2.2,23.451 -21.844,1.9 z"
       fill="#ed9da0"
       id="path5" />
    <path
       d="m 1395.373,316.354 -191.906,-14.93 a 3.054,3.054 0 0 1 0.474,-6.089 l 191.906,14.93 a 3.054,3.054 0 1 1 -0.474,6.089 m -79.685,5.904 -113.158,-8.8 a 3.054,3.054 0 0 1 0.474,-6.089 l 113.158,8.8 a 3.054,3.054 0 0 1 -0.474,6.089 m 24.927,14.043 -139.02,-10.816 a 3.054,3.054 0 0 1 0.474,-6.089 l 139.021,10.815 a 3.054,3.054 0 0 1 -0.474,6.089 z m 53.04,212.217 -234.25,-18.22 a 13.774,13.774 0 0 1 -12.65,-14.78 l 10.155,-113.813 a 13.774,13.774 0 0 1 14.784,-12.65 l 234.25,18.224 a 13.774,13.774 0 0 1 12.649,14.784 l -10.155,113.813 a 13.774,13.774 0 0 1 -14.783,12.642"
       fill="#e6e6e6"
       id="path6" />
    <path
       d="m 1338.261,522.807 q -2.629,0 -5.293,-0.206 l -151.387,-11.777 a 23.12,23.12 0 0 1 -21.257,-24.843 l 3.452,-44.375 a 23.12,23.12 0 0 1 24.844,-21.258 l 195.762,15.23 a 23.12,23.12 0 0 1 21.257,24.843 67.72,67.72 0 0 1 -67.377,62.386 z"
       fill="#ffffff"
       id="path7" />
    <path
       d="m 1379.698,470.854 -191.906,-14.93 a 3.054,3.054 0 1 1 0.474,-6.089 l 191.907,14.93 a 3.054,3.054 0 0 1 -0.474,6.089 z m -79.685,5.904 -113.158,-8.8 a 3.054,3.054 0 1 1 0.474,-6.089 l 113.158,8.8 a 3.054,3.054 0 0 1 -0.474,6.089 m 24.927,14.043 -139.02,-10.815 a 3.054,3.054 0 1 1 0.474,-6.089 l 139.021,10.815 a 3.054,3.054 0 0 1 -0.474,6.089 z"
       fill="#e6e6e6"
       id="path8" />
    <path
       d="m 797.79,489.057 a 56.086143,56.086143 0 0 1 102.625,-45.285 l -1.83,0.808 a 54.085245,54.085245 0 1 0 -98.964,43.669 z"
       fill="#090814"
       id="path9" />
    <path
       d="m 1379.51,540.466 -13.919,-74.1 -27.324,-35.965 -20.25,13.239 c 2.861,15.519 24.505,44.491 24.505,44.491 l 19.184,57.3 c -0.077,0.3 -0.148,0.6 -0.2,0.908 a 10.687,10.687 0 1 0 18,-5.881 z"
       fill="#ed9da0"
       id="path11" />
    <path
       d="m 1318.562,451.473 22.925,-18.607 0.044,-0.1 c 4.288,-9.716 -5.232,-26.377 -13.974,-38.642 a 19.6,19.6 0 0 0 -26.223,-5.3 19.64,19.64 0 0 0 -9.131,18.613 l 1.928,18.562 z"
       fill="#3f3d56"
       id="path12" />
    <path
       d="m 1237.538,820.221 h -17.281 l -8.221,-58.836 h 25.506 z m 70.954,0 h -19.291 l -7.3602,-58.43248 26.6552,-0.40352 z"
       fill="#ed9da0"
       id="path13"
       sodipodi:nodetypes="cccccccccc" />
    <path
       d="m 1310.589,813.215 c -6.277,-5.971 -4.645,0 -22.781,-7.375 l -9.72,7.374 c -11.4383,5.5e-4 -20.7109,9.2727 -20.712,20.711 v 0.674 h 53.213 c 0,0 6.277,-15.413 0,-21.384 m 17.892,-246.42 c 0,0 1.781,21.374 -2.672,41.857 -4.453,20.483 -4.454,78.166 -4.454,78.166 l -9.8,112.411 -29.389,-2.672 -8.011,-187.905 -28.5,63.23 0.1,6.28314 -2.298,4.59666 c 0,0 0.087,10.46173 -0.5743,12.6572 -0.5139,1.70526 -3.39,5.35037 -3.39,5.35037 l 3.4907,94.01063 -30.279,-0.891 -10.684,-129.131 11.577,-73.917 1.747,-11.18171 3.152,-2.90229 2.041,-5.953 3.748,-10.242 z"
       fill="#090814"
       id="path14"
       sodipodi:nodetypes="cccsccccscccccccscccccccccc" />
    <path
       d="m 1330.02,571.285 0.159,-0.223 c 8.477,-11.868 -4.272,-40.386 -6.2,-44.52 l 11.6,-31.233 0.017,-0.154 3.562,-31.17 5.179,-20.7 a 45.45,45.45 0 0 0 -12.9,-44.048 l -11.972,-11.288 -14.544,-21.531 h -23.466 l -8.045,15.2 a 34.2,34.2 0 0 0 -26.46,34.916 l 1.823,39.855 -7.138,49.623 v 8.98 l -6.279,17.7 c -9.93,16.691 -17.006,30 -16.367,30.437 5.025,3.4 32.8,10.34 45.092,5.421 13.094,-5.236 65.145,2.619 65.67,2.7 z"
       fill="#3f3d56"
       id="path15" />
    <circle
       cx="31.073999"
       cy="31.073999"
       r="31.073999"
       transform="translate(1259.084,299.318)"
       fill="#ed9da0"
       id="circle16" />
    <path
       d="m 1287.181,361.971 a 84.5,84.5 0 0 0 14.346,-1.375 c 4.687,-1.08 15.028,-9.076 17.846,-13.8 2.094,-3.51 3.351,-8.938 4.036,-12.874 a 37.78,37.78 0 0 0 -7.379,-29.811 11.94,11.94 0 0 0 -4.925,-3.989 6,6 0 0 0 -0.534,-0.165 14.73,14.73 0 0 1 -7.44,-4.342 12,12 0 0 0 -1.25,-1.221 18.14,18.14 0 0 0 -7.664,-3.6 c -4.529,-1.088 -11.006,0.275 -19.253,4.054 -4.143,1.9 -8.742,1.369 -12.286,0.7 a 1.15,1.15 0 0 0 -1.076,0.4 8.14,8.14 0 0 1 -5.476,2.349 c -1.258,0.088 -2.535,1.866 -4.074,4.182 -0.349,0.526 -0.757,1.139 -1.052,1.514 l -0.059,-0.7 -0.692,0.8 a 9.883,9.883 0 0 0 4.876,15.981 19.3,19.3 0 0 0 3.891,0.517 c 0.795,0.051 1.617,0.1 2.407,0.22 a 14.9,14.9 0 0 1 11.318,9.38 3.9,3.9 0 0 0 5.926,1.727 6.44,6.44 0 0 1 5.837,-1.219 4.27,4.27 0 0 1 1.944,2.093 5.57,5.57 0 0 0 2.176,2.41 c 3.235,1.564 3.644,8.85 2.654,14.959 -0.954,5.888 -3.03,10.184 -5.047,10.445 -1.553,0.2 -1.729,0.317 -1.834,0.595 l -0.094,0.249 0.181,0.226 a 6.4,6.4 0 0 0 2.7,0.29 z"
       fill="#090814"
       id="path17" />
    <circle
       cx="61.789001"
       cy="61.789001"
       r="61.789001"
       transform="translate(883.885,396.564)"
       fill="#05df72"
       id="circle17" />
    <path
       d="m 1280.024,449.158 -20.382,-13.035 c -12.979,8.977 -30.519,40.6 -30.519,40.6 l -44.392,41.015 a 10.681,10.681 0 1 0 11.838,14.195 l 61.868,-43.1 z"
       fill="#ed9da0"
       id="path18" />
    <path
       d="m 1278.081,454.447 13.574,-32.579 -4.91,-18 a 19.64,19.64 0 0 0 -15.24,-14.06 19.6,19.6 0 0 0 -22.536,14.418 c -3.718,14.6 -6.573,33.571 0.936,41.081 l 0.076,0.076 z"
       fill="#3f3d56"
       id="path19" />
    <path
       d="m 617.025,477.948 2,18.565 -1.178,24.344 53.922,-6.406 5.067,-36.5 -6.456,0.063 z"
       fill="#ffb6b6"
       id="path20" />
    <path
       d="m 587.133,815.005 h 14.78 l 7.035,-45.472 h -21.815 z"
       fill="#ed9da0"
       id="path21" />
    <path
       d="m 585.571,802.593 21.7,-1.3 v 9.3 l 20.631,14.248 a 5.807,5.807 0 0 1 -3.3,10.586 h -25.835 l -4.453,-9.2 -1.739,9.2 h -9.741 z"
       fill="#090814"
       id="path22" />
    <path
       d="m 652.278,815.005 h 14.956 l 7.117,-45.472 h -22.073 z"
       fill="#ed9da0"
       id="path23" />
    <path
       d="m 650.269,802.593 21.7,-1.3 v 9.3 l 20.632,14.249 a 5.808,5.808 0 0 1 -3.3,10.587 h -25.835 l -4.453,-9.2 -1.739,9.2 h -9.741 z M 583.97,775.792 h 0.128 c -0.713,-79.684 1.419,-106.931 5.539,-180.619 -7.557,-48.973 28.456,-80.911 28.456,-80.911 h 53.947 l 11.582,39.792 c 7.657,74.595 6.267,147.286 -5.883,217.71 l 0.331,0.167 c 1.193,0.412 1.7,2.064 1.143,3.69 -0.557,1.626 -1.983,2.611 -3.176,2.2 l -28.49,-0.991 c -1.193,-0.412 -1.7,-2.064 -1.143,-3.69 0.557,-1.626 1.983,-2.611 3.176,-2.2 l 1.937,0.98 -4.131,-71.345 0.458,-13.032 -0.945,-14.784 -4.367,-66.5 -16.53,81.775 -16.883,88.584 a 3.106,3.106 0 0 1 -2.094,5.408 H 583.97 a 3.116,3.116 0 1 1 0,-6.231 z"
       fill="#090814"
       id="path24" />
    <circle
       cx="28.934999"
       cy="28.934999"
       r="28.934999"
       transform="translate(597.506,328.076)"
       fill="#ed9da0"
       id="circle24" />
    <path
       d="m 499.647,490.693 a 94.2,94.2 0 0 1 16.532,-25.79 63.66,63.66 0 0 0 -9.667,30.87 49,49 0 0 0 6.6,3.453 63.3,63.3 0 0 0 21.633,4.86 94.4,94.4 0 0 1 20.269,-36.034 63.8,63.8 0 0 0 -9.72,35.877 100,100 0 0 0 24.341,-5.217 c 11.808,-4.062 23.271,-10.129 31.437,-19.565 8.838,-10.213 13.194,-23.69 14.6,-37.126 1.406,-13.436 0.084,-26.976 -1.249,-40.411 -0.63,-6.4 4.7,-13.771 4.073,-20.174 h -0.42 c -2.8,-3.842 -5.658,-7.778 -7.033,-12.333 -1.375,-4.555 -1.008,-9.909 2.131,-13.488 a 14.65,14.65 0 0 1 6.434,-3.989 c 0.231,-0.294 0.483,-0.577 0.745,-0.861 A 59.8,59.8 0 0 1 636.885,338.4 c -4.461,3.369 -7.442,7.18 -8.828,11.116 q 5.794,-1.275 11.588,-2.54 a 56,56 0 0 1 4.073,-3.9 c 2.068,-1.795 2.75,-1.931 5.217,-3.621 a 16.64,16.64 0 0 0 -4.5,6.424 c 4.965,-1.249 9.93,-3.128 12.512,-7.4 4.283,-7.064 -0.808,-16.595 -7.914,-20.814 a 28.32,28.32 0 0 0 -32.885,3.621 c -10.276,-7.568 -24.908,-7.442 -36.339,-1.784 a 53.1,53.1 0 0 0 -18.957,16.49 74,74 0 0 1 8.586,-0.6 26.3,26.3 0 0 0 -11.242,4.45 77,77 0 0 0 -4.073,7.127 q -1.212,2.409 -2.288,4.881 c -4.4,10.014 -7.264,20.678 -10.234,31.216 -3.464,12.281 -7.18,24.646 -13.666,35.635 a 80.04,80.04 0 0 1 -44.137,35.216 c -1.543,13.883 5.237,27.465 15.849,36.776"
       fill="#090814"
       id="path25" />
    <path
       d="m 577.54556,563.44862 c -1.45275,0.51371 -2.2174,2.10469 -1.711,3.56 l 39.05003,112.55 c 0.5137,1.45275 2.1047,2.2174 3.56,1.711 l 227.22,-79.722 c 1.4532,-0.51371 2.218,-2.10539 1.711,-3.561 l -39.05,-112.55 c -0.5137,-1.45327 -2.1054,-2.21805 -3.561,-1.711 z"
       fill="#e6e6e6"
       id="path30"
       style="display:inline" />
    <path
       d="M 660.90828,406.56657 C 657.91854,404.46545 649.963,403.723 649.963,403.723 l -7.082,-14.985 -25.226,2.698 -6.131,16.067 -10.53208,7.59859 2.22208,51.68041 10.035,54.076 67.177,-10.989 -0.071,-40.707 c 0,0 -0.62947,-30.23503 -7.47,-44.212 0,0 -5.88532,-14.10254 -11.97672,-18.38343 z"
       fill="#05df72"
       id="path26" />
    <path
       d="m 759.126,510.198 a 9.612,9.612 0 0 1 -12.991,-6.962 l -74.902,-45.318 13.691,-15.8 69.321,49.518 a 9.664,9.664 0 0 1 4.881,18.563 z"
       fill="#ed9da0"
       id="path27" />
    <path
       d="m 646.274,436.418 c 0,0 -3.58,3.6 5.4,9.524 7.191,4.741 39.264,28.17 50.633,31.876 -0.29332,3.43539 4.99859,6.85166 6.43412,3.8351 L 717.634,462.966 c -2.228,-5.172 -5.793,-3.974 -7.668,-2.8 l -12.433,-9.35 -30.53,-30.486 -18.191,13.441 z"
       fill="#05df72"
       id="path28" />
    <path
       d="m 616.33,322.067 a 40.3,40.3 0 0 0 -4.848,35.414"
       fill="#fd6584"
       id="path29" />
    <path
       d="m 633.834,665.75 a 21.65,21.65 0 0 1 -20.4,-14.41 l -21.445,-60.676 a 21.61,21.61 0 0 1 13.174,-27.578 l 114.839,-40.589 a 86.06,86.06 0 0 1 109.7,52.4 21.61,21.61 0 0 1 -13.174,27.578 l -0.167,-0.472 0.167,0.472 -175.513,62.043 a 21.5,21.5 0 0 1 -7.181,1.236 z"
       fill="#ffffff"
       id="path31" />
    <path
       d="m 786.124,546.145 -102.828,36.073 c -1.449,0.508 -3.244,-0.85 -4.011,-3.034 -0.767,-2.184 -0.213,-4.366 1.236,-4.874 l 102.828,-36.078 c 1.449,-0.508 3.244,0.85 4.011,3.034 0.767,2.184 0.213,4.372 -1.236,4.879 m 7.953,22.673 -102.828,36.074 c -1.449,0.508 -3.244,-0.85 -4.011,-3.034 -0.767,-2.184 -0.213,-4.366 1.236,-4.875 l 102.828,-36.078 c 1.449,-0.508 3.244,0.85 4.011,3.034 0.767,2.184 0.213,4.367 -1.236,4.879"
       fill="#e6e6e6"
       id="path32" />
    <path
       d="m 669.382,594.556 a 27.6,27.6 0 0 1 1.584,9.7 27,27 0 0 1 -0.446,4.5 27.706,27.706 0 0 1 -45.329,16.021 q -0.56,-0.479 -1.091,-0.989 a 27.7,27.7 0 1 1 45.282,-29.231 z"
       fill="#e4e4e4"
       id="path33" />
    <circle
       cx="5.2950001"
       cy="5.2950001"
       r="5.2950001"
       transform="translate(639.124,597.428)"
       fill="#fd6584"
       id="circle33" />
    <path
       d="m 624.1,623.787 c 1.359,-3.155 2.966,-7.968 6.688,-6.216 1.839,0.8 5.132,3.219 6.469,0.4 l 10.47,-21.916 a 3.41,3.41 0 0 1 4.628,-1.537 l 18.613,9.738 a 27,27 0 0 1 -0.446,4.5 l -45.329,16.021 z"
       fill="#090814"
       id="path34" />
    <path
       d="m 629.503,559.065 a 9.612,9.612 0 0 1 -4.725,-13.961 l -23.7,-84.279 20.79,-2.172 16.755,83.527 a 9.664,9.664 0 0 1 -9.125,16.886 z"
       fill="#ed9da0"
       id="path35" />
    <path
       d="m 597.75533,415.62998 c 0,0 -4.50434,3.07096 -2.74433,9.57402 2.008,8.376 9.383,60.917 15.149,71.393 -2.56232,2.3072 -3.12993,9.83314 0.0527,8.50673 L 631.5,496.232 c 1.908,-5.3 0.431,-10.108 -1.74,-10.534 l -2.684,-15.323 -3.956,-51.4 -21.877,-4.608 z M 804.555,636.309 l -31.776,1.316 c -1.37462,0.0593 -2.70083,-0.51356 -3.6,-1.555 -0.88937,-1.01441 -1.26423,-2.38076 -1.017,-3.707 2.43991,-13.29684 1.72923,-26.98046 -2.075,-39.953 -0.60596,-2.04601 0.31873,-4.23503 2.208,-5.227 13.015,-6.762 25.211,-7.105 36.246,-1.02 1.17044,0.63629 2.00147,1.75554 2.272,3.06 2.87147,14.15589 3.5601,28.66781 2.042,43.032 -0.21665,2.23709 -2.05403,3.96936 -4.3,4.054"
       fill="#05df72"
       id="path36" />
    <path
       d="m 803.212,615.511 -24.3,1.006 a 2.281,2.281 0 0 1 -0.189,-4.558 l 24.3,-1.006 a 2.281,2.281 0 0 1 0.189,4.558 m -0.331,-7.993 -24.3,1.006 a 2.281,2.281 0 0 1 -0.189,-4.558 l 24.3,-1.006 a 2.281,2.281 0 0 1 0.189,4.558"
       fill="#ffffff"
       id="path37" />
    <path
       d="M 1385.714,387.736 1354.18,383.6 a 4.5,4.5 0 0 1 -3.283,-2.148 4.4,4.4 0 0 1 -0.368,-3.826 86.5,86.5 0 0 0 4.786,-39.719 4.47,4.47 0 0 1 3.069,-4.772 c 13.98,-4.437 26.055,-2.69 35.887,5.191 a 4.53,4.53 0 0 1 1.715,3.4 141.6,141.6 0 0 1 -5.345,42.748 4.49,4.49 0 0 1 -4.926,3.259 z"
       fill="#05df72"
       id="path38" />
    <path
       d="m 1387.945,367.018 -24.111,-3.162 a 2.281,2.281 0 1 1 0.593,-4.523 l 24.111,3.162 a 2.281,2.281 0 0 1 -0.593,4.523 m 1.04,-7.935 -24.111,-3.165 a 2.281,2.281 0 0 1 0.593,-4.523 l 24.111,3.162 a 2.281,2.281 0 0 1 -0.593,4.523 z m -423.311,89.771 h -10.5 v -10.5 a 9.5,9.5 0 0 0 -19,0 v 10.5 h -10.5 a 9.5,9.5 0 0 0 0,19 h 10.5 v 10.5 a 9.5,9.5 0 1 0 19,0 v -10.5 h 10.5 a 9.5,9.5 0 0 0 0,-19"
       fill="#ffffff"
       id="path39" />
    <circle
       cx="10.011"
       cy="10.011"
       r="10.011"
       transform="translate(1295.698,234.512)"
       fill="#090814"
       id="circle39" />
    <circle
       cx="10.011"
       cy="10.011"
       r="10.011"
       transform="translate(680.698,517.512)"
       fill="#3f3d56"
       id="circle40" />
    <path
       d="m 1241.589,813.215 c -6.277,-5.971 -4.645,0 -22.781,-7.375 l -9.72,7.374 a 20.713,20.713 0 0 0 -20.712,20.711 v 0.674 h 53.213 c 0,0 6.277,-15.413 0,-21.384"
       fill="#090814"
       id="path40" />
  </g>
</svg>
